<?xml version="1.0" encoding="utf-8" standalone="no"?>
<!DOCTYPE svg PUBLIC "-//W3C//DTD SVG 1.1//EN"
  "http://www.w3.org/Graphics/SVG/1.1/DTD/svg11.dtd">
<svg xmlns:xlink="http://www.w3.org/1999/xlink" width="781.273125pt" height="636.758908pt" viewBox="0 0 781.273125 636.758908" xmlns="http://www.w3.org/2000/svg" version="1.1">
 <metadata>
  <rdf:RDF xmlns:dc="http://purl.org/dc/elements/1.1/" xmlns:cc="http://creativecommons.org/ns#" xmlns:rdf="http://www.w3.org/1999/02/22-rdf-syntax-ns#">
   <cc:Work>
    <dc:type rdf:resource="http://purl.org/dc/dcmitype/StillImage"/>
    <dc:date>2026-02-23T18:03:05.962597</dc:date>
    <dc:format>image/svg+xml</dc:format>
    <dc:creator>
     <cc:Agent>
      <dc:title>Matplotlib v3.10.8, https://matplotlib.org/</dc:title>
     </cc:Agent>
    </dc:creator>
   </cc:Work>
  </rdf:RDF>
 </metadata>
 <defs>
  <style type="text/css">*{stroke-linejoin: round; stroke-linecap: butt}</style>
 </defs>
 <g id="figure_1">
  <g id="patch_1">
   <path d="M 0 636.758908 
L 781.273125 636.758908 
L 781.273125 0 
L 0 0 
z
" style="fill: #ffffff"/>
  </g>
  <g id="axes_1">
   <g id="patch_2">
    <path d="M 606.053125 341.54 
C 606.053125 305.13843 598.882809 269.090818 584.952531 235.460153 
C 571.022253 201.829487 550.602922 171.269798 524.863125 145.53 
C 499.123327 119.790203 468.563638 99.370872 434.932972 85.440594 
C 401.302307 71.510316 365.254695 64.34 328.853125 64.34 
C 292.451555 64.34 256.403943 71.510316 222.773278 85.440594 
C 189.142612 99.370872 158.582923 119.790203 132.843125 145.53 
C 107.103328 171.269798 86.683997 201.829487 72.753719 235.460153 
C 58.823441 269.090818 51.653125 305.13843 51.653125 341.54 
C 51.653125 377.94157 58.823441 413.989182 72.753719 447.619847 
C 86.683997 481.250513 107.103328 511.810202 132.843125 537.55 
C 158.582923 563.289797 189.142612 583.709128 222.773278 597.639406 
C 256.403943 611.569684 292.451555 618.74 328.853125 618.74 
C 365.254695 618.74 401.302307 611.569684 434.932972 597.639406 
C 468.563638 583.709128 499.123327 563.289797 524.863125 537.55 
C 550.602922 511.810202 571.022253 481.250513 584.952531 447.619847 
C 598.882809 413.989182 606.053125 377.94157 606.053125 341.54 
M 328.853125 341.54 
C 328.853125 341.54 328.853125 341.54 328.853125 341.54 
C 328.853125 341.54 328.853125 341.54 328.853125 341.54 
C 328.853125 341.54 328.853125 341.54 328.853125 341.54 
C 328.853125 341.54 328.853125 341.54 328.853125 341.54 
C 328.853125 341.54 328.853125 341.54 328.853125 341.54 
C 328.853125 341.54 328.853125 341.54 328.853125 341.54 
C 328.853125 341.54 328.853125 341.54 328.853125 341.54 
C 328.853125 341.54 328.853125 341.54 328.853125 341.54 
C 328.853125 341.54 328.853125 341.54 328.853125 341.54 
C 328.853125 341.54 328.853125 341.54 328.853125 341.54 
C 328.853125 341.54 328.853125 341.54 328.853125 341.54 
C 328.853125 341.54 328.853125 341.54 328.853125 341.54 
C 328.853125 341.54 328.853125 341.54 328.853125 341.54 
C 328.853125 341.54 328.853125 341.54 328.853125 341.54 
C 328.853125 341.54 328.853125 341.54 328.853125 341.54 
C 328.853125 341.54 328.853125 341.54 328.853125 341.54 
z
" style="fill: #ffffff"/>
   </g>
   <g id="patch_3">
    <path d="M 328.853125 341.54 
L 328.853125 341.54 
L 328.853125 341.54 
L 328.853125 341.54 
L 328.853125 341.54 
L 328.853125 341.54 
L 328.853125 341.54 
L 328.853125 341.54 
L 328.853125 341.54 
L 328.853125 341.54 
z
" clip-path="url(#pa14bfbb996)" style="fill: #2962ff; opacity: 0.1; stroke: #2962ff; stroke-linejoin: miter"/>
   </g>
   <g id="patch_4">
    <path d="M 328.853125 341.54 
L 328.853125 341.54 
L 328.853125 341.54 
L 328.853125 341.54 
L 328.853125 341.54 
L 328.853125 341.54 
L 328.853125 341.54 
L 328.853125 341.54 
L 328.853125 341.54 
L 328.853125 341.54 
z
" clip-path="url(#pa14bfbb996)" style="fill: #3776ab; opacity: 0.1; stroke: #3776ab; stroke-linejoin: miter"/>
   </g>
   <g id="patch_5">
    <path d="M 328.853125 341.54 
L 328.853125 341.54 
L 328.853125 341.54 
L 328.853125 341.54 
L 328.853125 341.54 
L 328.853125 341.54 
L 328.853125 341.54 
L 328.853125 341.54 
L 328.853125 341.54 
L 328.853125 341.54 
z
" clip-path="url(#pa14bfbb996)" style="fill: #f7df1e; opacity: 0.1; stroke: #f7df1e; stroke-linejoin: miter"/>
   </g>
   <g id="matplotlib.axis_1">
    <g id="xtick_1">
     <g id="line2d_1">
      <path d="M 328.853125 341.54 
L 606.053125 341.54 
" clip-path="url(#pa14bfbb996)" style="fill: none; stroke: #b0b0b0; stroke-width: 0.8; stroke-linecap: square"/>
     </g>
     <g id="text_1">
      <!-- Sandbox Mode -->
      <g transform="translate(590.588125 343.7475) scale(0.08 -0.08)">
       <defs>
        <path id="DejaVuSans-53" d="M 3425 4513 
L 3425 3897 
Q 3066 4069 2747 4153 
Q 2428 4238 2131 4238 
Q 1616 4238 1336 4038 
Q 1056 3838 1056 3469 
Q 1056 3159 1242 3001 
Q 1428 2844 1947 2747 
L 2328 2669 
Q 3034 2534 3370 2195 
Q 3706 1856 3706 1288 
Q 3706 609 3251 259 
Q 2797 -91 1919 -91 
Q 1588 -91 1214 -16 
Q 841 59 441 206 
L 441 856 
Q 825 641 1194 531 
Q 1563 422 1919 422 
Q 2459 422 2753 634 
Q 3047 847 3047 1241 
Q 3047 1584 2836 1778 
Q 2625 1972 2144 2069 
L 1759 2144 
Q 1053 2284 737 2584 
Q 422 2884 422 3419 
Q 422 4038 858 4394 
Q 1294 4750 2059 4750 
Q 2388 4750 2728 4690 
Q 3069 4631 3425 4513 
z
" transform="scale(0.015625)"/>
        <path id="DejaVuSans-61" d="M 2194 1759 
Q 1497 1759 1228 1600 
Q 959 1441 959 1056 
Q 959 750 1161 570 
Q 1363 391 1709 391 
Q 2188 391 2477 730 
Q 2766 1069 2766 1631 
L 2766 1759 
L 2194 1759 
z
M 3341 1997 
L 3341 0 
L 2766 0 
L 2766 531 
Q 2569 213 2275 61 
Q 1981 -91 1556 -91 
Q 1019 -91 701 211 
Q 384 513 384 1019 
Q 384 1609 779 1909 
Q 1175 2209 1959 2209 
L 2766 2209 
L 2766 2266 
Q 2766 2663 2505 2880 
Q 2244 3097 1772 3097 
Q 1472 3097 1187 3025 
Q 903 2953 641 2809 
L 641 3341 
Q 956 3463 1253 3523 
Q 1550 3584 1831 3584 
Q 2591 3584 2966 3190 
Q 3341 2797 3341 1997 
z
" transform="scale(0.015625)"/>
        <path id="DejaVuSans-6e" d="M 3513 2113 
L 3513 0 
L 2938 0 
L 2938 2094 
Q 2938 2591 2744 2837 
Q 2550 3084 2163 3084 
Q 1697 3084 1428 2787 
Q 1159 2491 1159 1978 
L 1159 0 
L 581 0 
L 581 3500 
L 1159 3500 
L 1159 2956 
Q 1366 3272 1645 3428 
Q 1925 3584 2291 3584 
Q 2894 3584 3203 3211 
Q 3513 2838 3513 2113 
z
" transform="scale(0.015625)"/>
        <path id="DejaVuSans-64" d="M 2906 2969 
L 2906 4863 
L 3481 4863 
L 3481 0 
L 2906 0 
L 2906 525 
Q 2725 213 2448 61 
Q 2172 -91 1784 -91 
Q 1150 -91 751 415 
Q 353 922 353 1747 
Q 353 2572 751 3078 
Q 1150 3584 1784 3584 
Q 2172 3584 2448 3432 
Q 2725 3281 2906 2969 
z
M 947 1747 
Q 947 1113 1208 752 
Q 1469 391 1925 391 
Q 2381 391 2643 752 
Q 2906 1113 2906 1747 
Q 2906 2381 2643 2742 
Q 2381 3103 1925 3103 
Q 1469 3103 1208 2742 
Q 947 2381 947 1747 
z
" transform="scale(0.015625)"/>
        <path id="DejaVuSans-62" d="M 3116 1747 
Q 3116 2381 2855 2742 
Q 2594 3103 2138 3103 
Q 1681 3103 1420 2742 
Q 1159 2381 1159 1747 
Q 1159 1113 1420 752 
Q 1681 391 2138 391 
Q 2594 391 2855 752 
Q 3116 1113 3116 1747 
z
M 1159 2969 
Q 1341 3281 1617 3432 
Q 1894 3584 2278 3584 
Q 2916 3584 3314 3078 
Q 3713 2572 3713 1747 
Q 3713 922 3314 415 
Q 2916 -91 2278 -91 
Q 1894 -91 1617 61 
Q 1341 213 1159 525 
L 1159 0 
L 581 0 
L 581 4863 
L 1159 4863 
L 1159 2969 
z
" transform="scale(0.015625)"/>
        <path id="DejaVuSans-6f" d="M 1959 3097 
Q 1497 3097 1228 2736 
Q 959 2375 959 1747 
Q 959 1119 1226 758 
Q 1494 397 1959 397 
Q 2419 397 2687 759 
Q 2956 1122 2956 1747 
Q 2956 2369 2687 2733 
Q 2419 3097 1959 3097 
z
M 1959 3584 
Q 2709 3584 3137 3096 
Q 3566 2609 3566 1747 
Q 3566 888 3137 398 
Q 2709 -91 1959 -91 
Q 1206 -91 779 398 
Q 353 888 353 1747 
Q 353 2609 779 3096 
Q 1206 3584 1959 3584 
z
" transform="scale(0.015625)"/>
        <path id="DejaVuSans-78" d="M 3513 3500 
L 2247 1797 
L 3578 0 
L 2900 0 
L 1881 1375 
L 863 0 
L 184 0 
L 1544 1831 
L 300 3500 
L 978 3500 
L 1906 2253 
L 2834 3500 
L 3513 3500 
z
" transform="scale(0.015625)"/>
        <path id="DejaVuSans-20" transform="scale(0.015625)"/>
        <path id="DejaVuSans-4d" d="M 628 4666 
L 1569 4666 
L 2759 1491 
L 3956 4666 
L 4897 4666 
L 4897 0 
L 4281 0 
L 4281 4097 
L 3078 897 
L 2444 897 
L 1241 4097 
L 1241 0 
L 628 0 
L 628 4666 
z
" transform="scale(0.015625)"/>
        <path id="DejaVuSans-65" d="M 3597 1894 
L 3597 1613 
L 953 1613 
Q 991 1019 1311 708 
Q 1631 397 2203 397 
Q 2534 397 2845 478 
Q 3156 559 3463 722 
L 3463 178 
Q 3153 47 2828 -22 
Q 2503 -91 2169 -91 
Q 1331 -91 842 396 
Q 353 884 353 1716 
Q 353 2575 817 3079 
Q 1281 3584 2069 3584 
Q 2775 3584 3186 3129 
Q 3597 2675 3597 1894 
z
M 3022 2063 
Q 3016 2534 2758 2815 
Q 2500 3097 2075 3097 
Q 1594 3097 1305 2825 
Q 1016 2553 972 2059 
L 3022 2063 
z
" transform="scale(0.015625)"/>
       </defs>
       <use xlink:href="#DejaVuSans-53"/>
       <use xlink:href="#DejaVuSans-61" transform="translate(63.476562 0)"/>
       <use xlink:href="#DejaVuSans-6e" transform="translate(124.755859 0)"/>
       <use xlink:href="#DejaVuSans-64" transform="translate(188.134766 0)"/>
       <use xlink:href="#DejaVuSans-62" transform="translate(251.611328 0)"/>
       <use xlink:href="#DejaVuSans-6f" transform="translate(315.087891 0)"/>
       <use xlink:href="#DejaVuSans-78" transform="translate(373.144531 0)"/>
       <use xlink:href="#DejaVuSans-20" transform="translate(432.324219 0)"/>
       <use xlink:href="#DejaVuSans-4d" transform="translate(464.111328 0)"/>
       <use xlink:href="#DejaVuSans-6f" transform="translate(550.390625 0)"/>
       <use xlink:href="#DejaVuSans-64" transform="translate(611.572266 0)"/>
       <use xlink:href="#DejaVuSans-65" transform="translate(675.048828 0)"/>
      </g>
     </g>
    </g>
    <g id="xtick_2">
     <g id="line2d_2">
      <path d="M 328.853125 341.54 
L 553.112636 178.605928 
" clip-path="url(#pa14bfbb996)" style="fill: none; stroke: #b0b0b0; stroke-width: 0.8; stroke-linecap: square"/>
     </g>
     <g id="text_2">
      <!-- Guard Assertions -->
      <g transform="translate(530.213249 172.584435) scale(0.08 -0.08)">
       <defs>
        <path id="DejaVuSans-47" d="M 3809 666 
L 3809 1919 
L 2778 1919 
L 2778 2438 
L 4434 2438 
L 4434 434 
Q 4069 175 3628 42 
Q 3188 -91 2688 -91 
Q 1594 -91 976 548 
Q 359 1188 359 2328 
Q 359 3472 976 4111 
Q 1594 4750 2688 4750 
Q 3144 4750 3555 4637 
Q 3966 4525 4313 4306 
L 4313 3634 
Q 3963 3931 3569 4081 
Q 3175 4231 2741 4231 
Q 1884 4231 1454 3753 
Q 1025 3275 1025 2328 
Q 1025 1384 1454 906 
Q 1884 428 2741 428 
Q 3075 428 3337 486 
Q 3600 544 3809 666 
z
" transform="scale(0.015625)"/>
        <path id="DejaVuSans-75" d="M 544 1381 
L 544 3500 
L 1119 3500 
L 1119 1403 
Q 1119 906 1312 657 
Q 1506 409 1894 409 
Q 2359 409 2629 706 
Q 2900 1003 2900 1516 
L 2900 3500 
L 3475 3500 
L 3475 0 
L 2900 0 
L 2900 538 
Q 2691 219 2414 64 
Q 2138 -91 1772 -91 
Q 1169 -91 856 284 
Q 544 659 544 1381 
z
M 1991 3584 
L 1991 3584 
z
" transform="scale(0.015625)"/>
        <path id="DejaVuSans-72" d="M 2631 2963 
Q 2534 3019 2420 3045 
Q 2306 3072 2169 3072 
Q 1681 3072 1420 2755 
Q 1159 2438 1159 1844 
L 1159 0 
L 581 0 
L 581 3500 
L 1159 3500 
L 1159 2956 
Q 1341 3275 1631 3429 
Q 1922 3584 2338 3584 
Q 2397 3584 2469 3576 
Q 2541 3569 2628 3553 
L 2631 2963 
z
" transform="scale(0.015625)"/>
        <path id="DejaVuSans-41" d="M 2188 4044 
L 1331 1722 
L 3047 1722 
L 2188 4044 
z
M 1831 4666 
L 2547 4666 
L 4325 0 
L 3669 0 
L 3244 1197 
L 1141 1197 
L 716 0 
L 50 0 
L 1831 4666 
z
" transform="scale(0.015625)"/>
        <path id="DejaVuSans-73" d="M 2834 3397 
L 2834 2853 
Q 2591 2978 2328 3040 
Q 2066 3103 1784 3103 
Q 1356 3103 1142 2972 
Q 928 2841 928 2578 
Q 928 2378 1081 2264 
Q 1234 2150 1697 2047 
L 1894 2003 
Q 2506 1872 2764 1633 
Q 3022 1394 3022 966 
Q 3022 478 2636 193 
Q 2250 -91 1575 -91 
Q 1294 -91 989 -36 
Q 684 19 347 128 
L 347 722 
Q 666 556 975 473 
Q 1284 391 1588 391 
Q 1994 391 2212 530 
Q 2431 669 2431 922 
Q 2431 1156 2273 1281 
Q 2116 1406 1581 1522 
L 1381 1569 
Q 847 1681 609 1914 
Q 372 2147 372 2553 
Q 372 3047 722 3315 
Q 1072 3584 1716 3584 
Q 2034 3584 2315 3537 
Q 2597 3491 2834 3397 
z
" transform="scale(0.015625)"/>
        <path id="DejaVuSans-74" d="M 1172 4494 
L 1172 3500 
L 2356 3500 
L 2356 3053 
L 1172 3053 
L 1172 1153 
Q 1172 725 1289 603 
Q 1406 481 1766 481 
L 2356 481 
L 2356 0 
L 1766 0 
Q 1100 0 847 248 
Q 594 497 594 1153 
L 594 3053 
L 172 3053 
L 172 3500 
L 594 3500 
L 594 4494 
L 1172 4494 
z
" transform="scale(0.015625)"/>
        <path id="DejaVuSans-69" d="M 603 3500 
L 1178 3500 
L 1178 0 
L 603 0 
L 603 3500 
z
M 603 4863 
L 1178 4863 
L 1178 4134 
L 603 4134 
L 603 4863 
z
" transform="scale(0.015625)"/>
       </defs>
       <use xlink:href="#DejaVuSans-47"/>
       <use xlink:href="#DejaVuSans-75" transform="translate(77.490234 0)"/>
       <use xlink:href="#DejaVuSans-61" transform="translate(140.869141 0)"/>
       <use xlink:href="#DejaVuSans-72" transform="translate(202.148438 0)"/>
       <use xlink:href="#DejaVuSans-64" transform="translate(241.511719 0)"/>
       <use xlink:href="#DejaVuSans-20" transform="translate(304.988281 0)"/>
       <use xlink:href="#DejaVuSans-41" transform="translate(336.775391 0)"/>
       <use xlink:href="#DejaVuSans-73" transform="translate(405.183594 0)"/>
       <use xlink:href="#DejaVuSans-73" transform="translate(457.283203 0)"/>
       <use xlink:href="#DejaVuSans-65" transform="translate(509.382812 0)"/>
       <use xlink:href="#DejaVuSans-72" transform="translate(570.90625 0)"/>
       <use xlink:href="#DejaVuSans-74" transform="translate(612.019531 0)"/>
       <use xlink:href="#DejaVuSans-69" transform="translate(651.228516 0)"/>
       <use xlink:href="#DejaVuSans-6f" transform="translate(679.011719 0)"/>
       <use xlink:href="#DejaVuSans-6e" transform="translate(740.193359 0)"/>
       <use xlink:href="#DejaVuSans-73" transform="translate(803.572266 0)"/>
      </g>
     </g>
    </g>
    <g id="xtick_3">
     <g id="line2d_3">
      <path d="M 328.853125 341.54 
L 414.512636 77.907134 
" clip-path="url(#pa14bfbb996)" style="fill: none; stroke: #b0b0b0; stroke-width: 0.8; stroke-linecap: square"/>
     </g>
     <g id="text_3">
      <!-- Access Control -->
      <g transform="translate(389.416999 66.799842) scale(0.08 -0.08)">
       <defs>
        <path id="DejaVuSans-63" d="M 3122 3366 
L 3122 2828 
Q 2878 2963 2633 3030 
Q 2388 3097 2138 3097 
Q 1578 3097 1268 2742 
Q 959 2388 959 1747 
Q 959 1106 1268 751 
Q 1578 397 2138 397 
Q 2388 397 2633 464 
Q 2878 531 3122 666 
L 3122 134 
Q 2881 22 2623 -34 
Q 2366 -91 2075 -91 
Q 1284 -91 818 406 
Q 353 903 353 1747 
Q 353 2603 823 3093 
Q 1294 3584 2113 3584 
Q 2378 3584 2631 3529 
Q 2884 3475 3122 3366 
z
" transform="scale(0.015625)"/>
        <path id="DejaVuSans-43" d="M 4122 4306 
L 4122 3641 
Q 3803 3938 3442 4084 
Q 3081 4231 2675 4231 
Q 1875 4231 1450 3742 
Q 1025 3253 1025 2328 
Q 1025 1406 1450 917 
Q 1875 428 2675 428 
Q 3081 428 3442 575 
Q 3803 722 4122 1019 
L 4122 359 
Q 3791 134 3420 21 
Q 3050 -91 2638 -91 
Q 1578 -91 968 557 
Q 359 1206 359 2328 
Q 359 3453 968 4101 
Q 1578 4750 2638 4750 
Q 3056 4750 3426 4639 
Q 3797 4528 4122 4306 
z
" transform="scale(0.015625)"/>
        <path id="DejaVuSans-6c" d="M 603 4863 
L 1178 4863 
L 1178 0 
L 603 0 
L 603 4863 
z
" transform="scale(0.015625)"/>
       </defs>
       <use xlink:href="#DejaVuSans-41"/>
       <use xlink:href="#DejaVuSans-63" transform="translate(66.658203 0)"/>
       <use xlink:href="#DejaVuSans-63" transform="translate(121.638672 0)"/>
       <use xlink:href="#DejaVuSans-65" transform="translate(176.619141 0)"/>
       <use xlink:href="#DejaVuSans-73" transform="translate(238.142578 0)"/>
       <use xlink:href="#DejaVuSans-73" transform="translate(290.242188 0)"/>
       <use xlink:href="#DejaVuSans-20" transform="translate(342.341797 0)"/>
       <use xlink:href="#DejaVuSans-43" transform="translate(374.128906 0)"/>
       <use xlink:href="#DejaVuSans-6f" transform="translate(443.953125 0)"/>
       <use xlink:href="#DejaVuSans-6e" transform="translate(505.134766 0)"/>
       <use xlink:href="#DejaVuSans-74" transform="translate(568.513672 0)"/>
       <use xlink:href="#DejaVuSans-72" transform="translate(607.722656 0)"/>
       <use xlink:href="#DejaVuSans-6f" transform="translate(646.585938 0)"/>
       <use xlink:href="#DejaVuSans-6c" transform="translate(707.767578 0)"/>
      </g>
     </g>
    </g>
    <g id="xtick_4">
     <g id="line2d_4">
      <path d="M 328.853125 341.54 
L 243.193614 77.907134 
" clip-path="url(#pa14bfbb996)" style="fill: none; stroke: #b0b0b0; stroke-width: 0.8; stroke-linecap: square"/>
     </g>
     <g id="text_4">
      <!-- Memory Safety -->
      <g transform="translate(208.532376 66.799842) scale(0.08 -0.08)">
       <defs>
        <path id="DejaVuSans-6d" d="M 3328 2828 
Q 3544 3216 3844 3400 
Q 4144 3584 4550 3584 
Q 5097 3584 5394 3201 
Q 5691 2819 5691 2113 
L 5691 0 
L 5113 0 
L 5113 2094 
Q 5113 2597 4934 2840 
Q 4756 3084 4391 3084 
Q 3944 3084 3684 2787 
Q 3425 2491 3425 1978 
L 3425 0 
L 2847 0 
L 2847 2094 
Q 2847 2600 2669 2842 
Q 2491 3084 2119 3084 
Q 1678 3084 1418 2786 
Q 1159 2488 1159 1978 
L 1159 0 
L 581 0 
L 581 3500 
L 1159 3500 
L 1159 2956 
Q 1356 3278 1631 3431 
Q 1906 3584 2284 3584 
Q 2666 3584 2933 3390 
Q 3200 3197 3328 2828 
z
" transform="scale(0.015625)"/>
        <path id="DejaVuSans-79" d="M 2059 -325 
Q 1816 -950 1584 -1140 
Q 1353 -1331 966 -1331 
L 506 -1331 
L 506 -850 
L 844 -850 
Q 1081 -850 1212 -737 
Q 1344 -625 1503 -206 
L 1606 56 
L 191 3500 
L 800 3500 
L 1894 763 
L 2988 3500 
L 3597 3500 
L 2059 -325 
z
" transform="scale(0.015625)"/>
        <path id="DejaVuSans-66" d="M 2375 4863 
L 2375 4384 
L 1825 4384 
Q 1516 4384 1395 4259 
Q 1275 4134 1275 3809 
L 1275 3500 
L 2222 3500 
L 2222 3053 
L 1275 3053 
L 1275 0 
L 697 0 
L 697 3053 
L 147 3053 
L 147 3500 
L 697 3500 
L 697 3744 
Q 697 4328 969 4595 
Q 1241 4863 1831 4863 
L 2375 4863 
z
" transform="scale(0.015625)"/>
       </defs>
       <use xlink:href="#DejaVuSans-4d"/>
       <use xlink:href="#DejaVuSans-65" transform="translate(86.279297 0)"/>
       <use xlink:href="#DejaVuSans-6d" transform="translate(147.802734 0)"/>
       <use xlink:href="#DejaVuSans-6f" transform="translate(245.214844 0)"/>
       <use xlink:href="#DejaVuSans-72" transform="translate(306.396484 0)"/>
       <use xlink:href="#DejaVuSans-79" transform="translate(347.509766 0)"/>
       <use xlink:href="#DejaVuSans-20" transform="translate(406.689453 0)"/>
       <use xlink:href="#DejaVuSans-53" transform="translate(438.476562 0)"/>
       <use xlink:href="#DejaVuSans-61" transform="translate(501.953125 0)"/>
       <use xlink:href="#DejaVuSans-66" transform="translate(563.232422 0)"/>
       <use xlink:href="#DejaVuSans-65" transform="translate(598.4375 0)"/>
       <use xlink:href="#DejaVuSans-74" transform="translate(659.960938 0)"/>
       <use xlink:href="#DejaVuSans-79" transform="translate(699.169922 0)"/>
      </g>
     </g>
    </g>
    <g id="xtick_5">
     <g id="line2d_5">
      <path d="M 328.853125 341.54 
L 104.593614 178.605928 
" clip-path="url(#pa14bfbb996)" style="fill: none; stroke: #b0b0b0; stroke-width: 0.8; stroke-linecap: square"/>
     </g>
     <g id="text_5">
      <!-- Dunder/Internal At -->
      <g transform="translate(56.203001 172.584435) scale(0.08 -0.08)">
       <defs>
        <path id="DejaVuSans-44" d="M 1259 4147 
L 1259 519 
L 2022 519 
Q 2988 519 3436 956 
Q 3884 1394 3884 2338 
Q 3884 3275 3436 3711 
Q 2988 4147 2022 4147 
L 1259 4147 
z
M 628 4666 
L 1925 4666 
Q 3281 4666 3915 4102 
Q 4550 3538 4550 2338 
Q 4550 1131 3912 565 
Q 3275 0 1925 0 
L 628 0 
L 628 4666 
z
" transform="scale(0.015625)"/>
        <path id="DejaVuSans-2f" d="M 1625 4666 
L 2156 4666 
L 531 -594 
L 0 -594 
L 1625 4666 
z
" transform="scale(0.015625)"/>
        <path id="DejaVuSans-49" d="M 628 4666 
L 1259 4666 
L 1259 0 
L 628 0 
L 628 4666 
z
" transform="scale(0.015625)"/>
       </defs>
       <use xlink:href="#DejaVuSans-44"/>
       <use xlink:href="#DejaVuSans-75" transform="translate(77.001953 0)"/>
       <use xlink:href="#DejaVuSans-6e" transform="translate(140.380859 0)"/>
       <use xlink:href="#DejaVuSans-64" transform="translate(203.759766 0)"/>
       <use xlink:href="#DejaVuSans-65" transform="translate(267.236328 0)"/>
       <use xlink:href="#DejaVuSans-72" transform="translate(328.759766 0)"/>
       <use xlink:href="#DejaVuSans-2f" transform="translate(369.873047 0)"/>
       <use xlink:href="#DejaVuSans-49" transform="translate(403.564453 0)"/>
       <use xlink:href="#DejaVuSans-6e" transform="translate(433.056641 0)"/>
       <use xlink:href="#DejaVuSans-74" transform="translate(496.435547 0)"/>
       <use xlink:href="#DejaVuSans-65" transform="translate(535.644531 0)"/>
       <use xlink:href="#DejaVuSans-72" transform="translate(597.167969 0)"/>
       <use xlink:href="#DejaVuSans-6e" transform="translate(636.53125 0)"/>
       <use xlink:href="#DejaVuSans-61" transform="translate(699.910156 0)"/>
       <use xlink:href="#DejaVuSans-6c" transform="translate(761.189453 0)"/>
       <use xlink:href="#DejaVuSans-20" transform="translate(788.972656 0)"/>
       <use xlink:href="#DejaVuSans-41" transform="translate(820.759766 0)"/>
       <use xlink:href="#DejaVuSans-74" transform="translate(887.417969 0)"/>
      </g>
     </g>
    </g>
    <g id="xtick_6">
     <g id="line2d_6">
      <path d="M 328.853125 341.54 
L 51.653125 341.54 
" clip-path="url(#pa14bfbb996)" style="fill: none; stroke: #b0b0b0; stroke-width: 0.8; stroke-linecap: square"/>
     </g>
     <g id="text_6">
      <!-- Type Safety -->
      <g transform="translate(14.4 343.7475) scale(0.08 -0.08)">
       <defs>
        <path id="DejaVuSans-54" d="M -19 4666 
L 3928 4666 
L 3928 4134 
L 2272 4134 
L 2272 0 
L 1638 0 
L 1638 4134 
L -19 4134 
L -19 4666 
z
" transform="scale(0.015625)"/>
        <path id="DejaVuSans-70" d="M 1159 525 
L 1159 -1331 
L 581 -1331 
L 581 3500 
L 1159 3500 
L 1159 2969 
Q 1341 3281 1617 3432 
Q 1894 3584 2278 3584 
Q 2916 3584 3314 3078 
Q 3713 2572 3713 1747 
Q 3713 922 3314 415 
Q 2916 -91 2278 -91 
Q 1894 -91 1617 61 
Q 1341 213 1159 525 
z
M 3116 1747 
Q 3116 2381 2855 2742 
Q 2594 3103 2138 3103 
Q 1681 3103 1420 2742 
Q 1159 2381 1159 1747 
Q 1159 1113 1420 752 
Q 1681 391 2138 391 
Q 2594 391 2855 752 
Q 3116 1113 3116 1747 
z
" transform="scale(0.015625)"/>
       </defs>
       <use xlink:href="#DejaVuSans-54"/>
       <use xlink:href="#DejaVuSans-79" transform="translate(45.458984 0)"/>
       <use xlink:href="#DejaVuSans-70" transform="translate(104.638672 0)"/>
       <use xlink:href="#DejaVuSans-65" transform="translate(168.115234 0)"/>
       <use xlink:href="#DejaVuSans-20" transform="translate(229.638672 0)"/>
       <use xlink:href="#DejaVuSans-53" transform="translate(261.425781 0)"/>
       <use xlink:href="#DejaVuSans-61" transform="translate(324.902344 0)"/>
       <use xlink:href="#DejaVuSans-66" transform="translate(386.181641 0)"/>
       <use xlink:href="#DejaVuSans-65" transform="translate(421.386719 0)"/>
       <use xlink:href="#DejaVuSans-74" transform="translate(482.910156 0)"/>
       <use xlink:href="#DejaVuSans-79" transform="translate(522.119141 0)"/>
      </g>
     </g>
    </g>
    <g id="xtick_7">
     <g id="line2d_7">
      <path d="M 328.853125 341.54 
L 104.593614 504.474072 
" clip-path="url(#pa14bfbb996)" style="fill: none; stroke: #b0b0b0; stroke-width: 0.8; stroke-linecap: square"/>
     </g>
     <g id="text_7">
      <!-- Execution Timeout -->
      <g transform="translate(56.031126 514.910565) scale(0.08 -0.08)">
       <defs>
        <path id="DejaVuSans-45" d="M 628 4666 
L 3578 4666 
L 3578 4134 
L 1259 4134 
L 1259 2753 
L 3481 2753 
L 3481 2222 
L 1259 2222 
L 1259 531 
L 3634 531 
L 3634 0 
L 628 0 
L 628 4666 
z
" transform="scale(0.015625)"/>
       </defs>
       <use xlink:href="#DejaVuSans-45"/>
       <use xlink:href="#DejaVuSans-78" transform="translate(63.183594 0)"/>
       <use xlink:href="#DejaVuSans-65" transform="translate(119.238281 0)"/>
       <use xlink:href="#DejaVuSans-63" transform="translate(180.761719 0)"/>
       <use xlink:href="#DejaVuSans-75" transform="translate(235.742188 0)"/>
       <use xlink:href="#DejaVuSans-74" transform="translate(299.121094 0)"/>
       <use xlink:href="#DejaVuSans-69" transform="translate(338.330078 0)"/>
       <use xlink:href="#DejaVuSans-6f" transform="translate(366.113281 0)"/>
       <use xlink:href="#DejaVuSans-6e" transform="translate(427.294922 0)"/>
       <use xlink:href="#DejaVuSans-20" transform="translate(490.673828 0)"/>
       <use xlink:href="#DejaVuSans-54" transform="translate(522.460938 0)"/>
       <use xlink:href="#DejaVuSans-69" transform="translate(580.419922 0)"/>
       <use xlink:href="#DejaVuSans-6d" transform="translate(608.203125 0)"/>
       <use xlink:href="#DejaVuSans-65" transform="translate(705.615234 0)"/>
       <use xlink:href="#DejaVuSans-6f" transform="translate(767.138672 0)"/>
       <use xlink:href="#DejaVuSans-75" transform="translate(828.320312 0)"/>
       <use xlink:href="#DejaVuSans-74" transform="translate(891.699219 0)"/>
      </g>
     </g>
    </g>
    <g id="xtick_8">
     <g id="line2d_8">
      <path d="M 328.853125 341.54 
L 243.193614 605.172866 
" clip-path="url(#pa14bfbb996)" style="fill: none; stroke: #b0b0b0; stroke-width: 0.8; stroke-linecap: square"/>
     </g>
     <g id="text_8">
      <!-- Rate Limiting -->
      <g transform="translate(212.324876 620.695158) scale(0.08 -0.08)">
       <defs>
        <path id="DejaVuSans-52" d="M 2841 2188 
Q 3044 2119 3236 1894 
Q 3428 1669 3622 1275 
L 4263 0 
L 3584 0 
L 2988 1197 
Q 2756 1666 2539 1819 
Q 2322 1972 1947 1972 
L 1259 1972 
L 1259 0 
L 628 0 
L 628 4666 
L 2053 4666 
Q 2853 4666 3247 4331 
Q 3641 3997 3641 3322 
Q 3641 2881 3436 2590 
Q 3231 2300 2841 2188 
z
M 1259 4147 
L 1259 2491 
L 2053 2491 
Q 2509 2491 2742 2702 
Q 2975 2913 2975 3322 
Q 2975 3731 2742 3939 
Q 2509 4147 2053 4147 
L 1259 4147 
z
" transform="scale(0.015625)"/>
        <path id="DejaVuSans-4c" d="M 628 4666 
L 1259 4666 
L 1259 531 
L 3531 531 
L 3531 0 
L 628 0 
L 628 4666 
z
" transform="scale(0.015625)"/>
        <path id="DejaVuSans-67" d="M 2906 1791 
Q 2906 2416 2648 2759 
Q 2391 3103 1925 3103 
Q 1463 3103 1205 2759 
Q 947 2416 947 1791 
Q 947 1169 1205 825 
Q 1463 481 1925 481 
Q 2391 481 2648 825 
Q 2906 1169 2906 1791 
z
M 3481 434 
Q 3481 -459 3084 -895 
Q 2688 -1331 1869 -1331 
Q 1566 -1331 1297 -1286 
Q 1028 -1241 775 -1147 
L 775 -588 
Q 1028 -725 1275 -790 
Q 1522 -856 1778 -856 
Q 2344 -856 2625 -561 
Q 2906 -266 2906 331 
L 2906 616 
Q 2728 306 2450 153 
Q 2172 0 1784 0 
Q 1141 0 747 490 
Q 353 981 353 1791 
Q 353 2603 747 3093 
Q 1141 3584 1784 3584 
Q 2172 3584 2450 3431 
Q 2728 3278 2906 2969 
L 2906 3500 
L 3481 3500 
L 3481 434 
z
" transform="scale(0.015625)"/>
       </defs>
       <use xlink:href="#DejaVuSans-52"/>
       <use xlink:href="#DejaVuSans-61" transform="translate(67.232422 0)"/>
       <use xlink:href="#DejaVuSans-74" transform="translate(128.511719 0)"/>
       <use xlink:href="#DejaVuSans-65" transform="translate(167.720703 0)"/>
       <use xlink:href="#DejaVuSans-20" transform="translate(229.244141 0)"/>
       <use xlink:href="#DejaVuSans-4c" transform="translate(261.03125 0)"/>
       <use xlink:href="#DejaVuSans-69" transform="translate(316.744141 0)"/>
       <use xlink:href="#DejaVuSans-6d" transform="translate(344.527344 0)"/>
       <use xlink:href="#DejaVuSans-69" transform="translate(441.939453 0)"/>
       <use xlink:href="#DejaVuSans-74" transform="translate(469.722656 0)"/>
       <use xlink:href="#DejaVuSans-69" transform="translate(508.931641 0)"/>
       <use xlink:href="#DejaVuSans-6e" transform="translate(536.714844 0)"/>
       <use xlink:href="#DejaVuSans-67" transform="translate(600.09375 0)"/>
      </g>
     </g>
    </g>
    <g id="xtick_9">
     <g id="line2d_9">
      <path d="M 328.853125 341.54 
L 414.512636 605.172866 
" clip-path="url(#pa14bfbb996)" style="fill: none; stroke: #b0b0b0; stroke-width: 0.8; stroke-linecap: square"/>
     </g>
     <g id="text_9">
      <!-- Homomorphic Encryp -->
      <g transform="translate(375.581999 620.695158) scale(0.08 -0.08)">
       <defs>
        <path id="DejaVuSans-48" d="M 628 4666 
L 1259 4666 
L 1259 2753 
L 3553 2753 
L 3553 4666 
L 4184 4666 
L 4184 0 
L 3553 0 
L 3553 2222 
L 1259 2222 
L 1259 0 
L 628 0 
L 628 4666 
z
" transform="scale(0.015625)"/>
        <path id="DejaVuSans-68" d="M 3513 2113 
L 3513 0 
L 2938 0 
L 2938 2094 
Q 2938 2591 2744 2837 
Q 2550 3084 2163 3084 
Q 1697 3084 1428 2787 
Q 1159 2491 1159 1978 
L 1159 0 
L 581 0 
L 581 4863 
L 1159 4863 
L 1159 2956 
Q 1366 3272 1645 3428 
Q 1925 3584 2291 3584 
Q 2894 3584 3203 3211 
Q 3513 2838 3513 2113 
z
" transform="scale(0.015625)"/>
       </defs>
       <use xlink:href="#DejaVuSans-48"/>
       <use xlink:href="#DejaVuSans-6f" transform="translate(75.195312 0)"/>
       <use xlink:href="#DejaVuSans-6d" transform="translate(136.376953 0)"/>
       <use xlink:href="#DejaVuSans-6f" transform="translate(233.789062 0)"/>
       <use xlink:href="#DejaVuSans-6d" transform="translate(294.970703 0)"/>
       <use xlink:href="#DejaVuSans-6f" transform="translate(392.382812 0)"/>
       <use xlink:href="#DejaVuSans-72" transform="translate(453.564453 0)"/>
       <use xlink:href="#DejaVuSans-70" transform="translate(494.677734 0)"/>
       <use xlink:href="#DejaVuSans-68" transform="translate(558.154297 0)"/>
       <use xlink:href="#DejaVuSans-69" transform="translate(621.533203 0)"/>
       <use xlink:href="#DejaVuSans-63" transform="translate(649.316406 0)"/>
       <use xlink:href="#DejaVuSans-20" transform="translate(704.296875 0)"/>
       <use xlink:href="#DejaVuSans-45" transform="translate(736.083984 0)"/>
       <use xlink:href="#DejaVuSans-6e" transform="translate(799.267578 0)"/>
       <use xlink:href="#DejaVuSans-63" transform="translate(862.646484 0)"/>
       <use xlink:href="#DejaVuSans-72" transform="translate(917.626953 0)"/>
       <use xlink:href="#DejaVuSans-79" transform="translate(958.740234 0)"/>
       <use xlink:href="#DejaVuSans-70" transform="translate(1017.919922 0)"/>
      </g>
     </g>
    </g>
    <g id="xtick_10">
     <g id="line2d_10">
      <path d="M 328.853125 341.54 
L 553.112636 504.474072 
" clip-path="url(#pa14bfbb996)" style="fill: none; stroke: #b0b0b0; stroke-width: 0.8; stroke-linecap: square"/>
     </g>
     <g id="text_10">
      <!-- Zero-Knowledge Pro -->
      <g transform="translate(524.113249 514.910565) scale(0.08 -0.08)">
       <defs>
        <path id="DejaVuSans-5a" d="M 359 4666 
L 4025 4666 
L 4025 4184 
L 1075 531 
L 4097 531 
L 4097 0 
L 288 0 
L 288 481 
L 3238 4134 
L 359 4134 
L 359 4666 
z
" transform="scale(0.015625)"/>
        <path id="DejaVuSans-2d" d="M 313 2009 
L 1997 2009 
L 1997 1497 
L 313 1497 
L 313 2009 
z
" transform="scale(0.015625)"/>
        <path id="DejaVuSans-4b" d="M 628 4666 
L 1259 4666 
L 1259 2694 
L 3353 4666 
L 4166 4666 
L 1850 2491 
L 4331 0 
L 3500 0 
L 1259 2247 
L 1259 0 
L 628 0 
L 628 4666 
z
" transform="scale(0.015625)"/>
        <path id="DejaVuSans-77" d="M 269 3500 
L 844 3500 
L 1563 769 
L 2278 3500 
L 2956 3500 
L 3675 769 
L 4391 3500 
L 4966 3500 
L 4050 0 
L 3372 0 
L 2619 2869 
L 1863 0 
L 1184 0 
L 269 3500 
z
" transform="scale(0.015625)"/>
        <path id="DejaVuSans-50" d="M 1259 4147 
L 1259 2394 
L 2053 2394 
Q 2494 2394 2734 2622 
Q 2975 2850 2975 3272 
Q 2975 3691 2734 3919 
Q 2494 4147 2053 4147 
L 1259 4147 
z
M 628 4666 
L 2053 4666 
Q 2838 4666 3239 4311 
Q 3641 3956 3641 3272 
Q 3641 2581 3239 2228 
Q 2838 1875 2053 1875 
L 1259 1875 
L 1259 0 
L 628 0 
L 628 4666 
z
" transform="scale(0.015625)"/>
       </defs>
       <use xlink:href="#DejaVuSans-5a"/>
       <use xlink:href="#DejaVuSans-65" transform="translate(68.505859 0)"/>
       <use xlink:href="#DejaVuSans-72" transform="translate(130.029297 0)"/>
       <use xlink:href="#DejaVuSans-6f" transform="translate(168.892578 0)"/>
       <use xlink:href="#DejaVuSans-2d" transform="translate(231.949219 0)"/>
       <use xlink:href="#DejaVuSans-4b" transform="translate(268.033203 0)"/>
       <use xlink:href="#DejaVuSans-6e" transform="translate(333.609375 0)"/>
       <use xlink:href="#DejaVuSans-6f" transform="translate(396.988281 0)"/>
       <use xlink:href="#DejaVuSans-77" transform="translate(458.169922 0)"/>
       <use xlink:href="#DejaVuSans-6c" transform="translate(539.957031 0)"/>
       <use xlink:href="#DejaVuSans-65" transform="translate(567.740234 0)"/>
       <use xlink:href="#DejaVuSans-64" transform="translate(629.263672 0)"/>
       <use xlink:href="#DejaVuSans-67" transform="translate(692.740234 0)"/>
       <use xlink:href="#DejaVuSans-65" transform="translate(756.216797 0)"/>
       <use xlink:href="#DejaVuSans-20" transform="translate(817.740234 0)"/>
       <use xlink:href="#DejaVuSans-50" transform="translate(849.527344 0)"/>
       <use xlink:href="#DejaVuSans-72" transform="translate(908.080078 0)"/>
       <use xlink:href="#DejaVuSans-6f" transform="translate(946.943359 0)"/>
      </g>
     </g>
    </g>
   </g>
   <g id="matplotlib.axis_2">
    <g id="ytick_1">
     <g id="line2d_11">
      <path d="M 328.853125 341.54 
C 328.853125 341.54 328.853125 341.54 328.853125 341.54 
C 328.853125 341.54 328.853125 341.54 328.853125 341.54 
C 328.853125 341.54 328.853125 341.54 328.853125 341.54 
C 328.853125 341.54 328.853125 341.54 328.853125 341.54 
C 328.853125 341.54 328.853125 341.54 328.853125 341.54 
C 328.853125 341.54 328.853125 341.54 328.853125 341.54 
C 328.853125 341.54 328.853125 341.54 328.853125 341.54 
C 328.853125 341.54 328.853125 341.54 328.853125 341.54 
C 328.853125 341.54 328.853125 341.54 328.853125 341.54 
C 328.853125 341.54 328.853125 341.54 328.853125 341.54 
C 328.853125 341.54 328.853125 341.54 328.853125 341.54 
C 328.853125 341.54 328.853125 341.54 328.853125 341.54 
C 328.853125 341.54 328.853125 341.54 328.853125 341.54 
C 328.853125 341.54 328.853125 341.54 328.853125 341.54 
C 328.853125 341.54 328.853125 341.54 328.853125 341.54 
C 328.853125 341.54 328.853125 341.54 328.853125 341.54 
" clip-path="url(#pa14bfbb996)" style="fill: none; stroke: #b0b0b0; stroke-width: 0.8; stroke-linecap: square"/>
     </g>
     <g id="text_11">
      <!-- None -->
      <g transform="translate(328.853125 339.87625) scale(0.08 -0.08)">
       <defs>
        <path id="DejaVuSans-4e" d="M 628 4666 
L 1478 4666 
L 3547 763 
L 3547 4666 
L 4159 4666 
L 4159 0 
L 3309 0 
L 1241 3903 
L 1241 0 
L 628 0 
L 628 4666 
z
" transform="scale(0.015625)"/>
       </defs>
       <use xlink:href="#DejaVuSans-4e"/>
       <use xlink:href="#DejaVuSans-6f" transform="translate(74.804688 0)"/>
       <use xlink:href="#DejaVuSans-6e" transform="translate(135.986328 0)"/>
       <use xlink:href="#DejaVuSans-65" transform="translate(199.365234 0)"/>
      </g>
     </g>
    </g>
    <g id="ytick_2">
     <g id="line2d_12">
      <path d="M 439.733125 341.54 
C 439.733125 326.979372 436.864999 312.560327 431.292888 299.108061 
C 425.720776 285.655795 417.553044 273.431919 407.257125 263.136 
C 396.961206 252.840081 384.73733 244.672349 371.285064 239.100237 
C 357.832798 233.528126 343.413753 230.66 328.853125 230.66 
C 314.292497 230.66 299.873452 233.528126 286.421186 239.100237 
C 272.96892 244.672349 260.745044 252.840081 250.449125 263.136 
C 240.153206 273.431919 231.985474 285.655795 226.413362 299.108061 
C 220.841251 312.560327 217.973125 326.979372 217.973125 341.54 
C 217.973125 356.100628 220.841251 370.519673 226.413362 383.971939 
C 231.985474 397.424205 240.153206 409.648081 250.449125 419.944 
C 260.745044 430.239919 272.96892 438.407651 286.421186 443.979763 
C 299.873452 449.551874 314.292497 452.42 328.853125 452.42 
C 343.413753 452.42 357.832798 449.551874 371.285064 443.979763 
C 384.73733 438.407651 396.961206 430.239919 407.257125 419.944 
C 417.553044 409.648081 425.720776 397.424205 431.292888 383.971939 
C 436.864999 370.519673 439.733125 356.100628 439.733125 341.54 
" clip-path="url(#pa14bfbb996)" style="fill: none; stroke: #b0b0b0; stroke-width: 0.8; stroke-linecap: square"/>
     </g>
     <g id="text_12">
      <!-- External -->
      <g transform="translate(431.292888 297.444311) scale(0.08 -0.08)">
       <use xlink:href="#DejaVuSans-45"/>
       <use xlink:href="#DejaVuSans-78" transform="translate(63.183594 0)"/>
       <use xlink:href="#DejaVuSans-74" transform="translate(122.363281 0)"/>
       <use xlink:href="#DejaVuSans-65" transform="translate(161.572266 0)"/>
       <use xlink:href="#DejaVuSans-72" transform="translate(223.095703 0)"/>
       <use xlink:href="#DejaVuSans-6e" transform="translate(262.458984 0)"/>
       <use xlink:href="#DejaVuSans-61" transform="translate(325.837891 0)"/>
       <use xlink:href="#DejaVuSans-6c" transform="translate(387.117188 0)"/>
      </g>
     </g>
    </g>
    <g id="ytick_3">
     <g id="line2d_13">
      <path d="M 550.613125 341.54 
C 550.613125 312.418744 544.876872 283.580655 533.73265 256.676122 
C 522.588428 229.771589 506.252963 205.323838 485.661125 184.732 
C 465.069287 164.140162 440.621536 147.804697 413.717003 136.660475 
C 386.81247 125.516253 357.974381 119.78 328.853125 119.78 
C 299.731869 119.78 270.89378 125.516253 243.989247 136.660475 
C 217.084714 147.804697 192.636963 164.140162 172.045125 184.732 
C 151.453287 205.323838 135.117822 229.771589 123.9736 256.676122 
C 112.829378 283.580655 107.093125 312.418744 107.093125 341.54 
C 107.093125 370.661256 112.829378 399.499345 123.9736 426.403878 
C 135.117822 453.308411 151.453287 477.756162 172.045125 498.348 
C 192.636963 518.939838 217.084714 535.275303 243.989247 546.419525 
C 270.89378 557.563747 299.731869 563.3 328.853125 563.3 
C 357.974381 563.3 386.81247 557.563747 413.717003 546.419525 
C 440.621536 535.275303 465.069287 518.939838 485.661125 498.348 
C 506.252963 477.756162 522.588428 453.308411 533.73265 426.403878 
C 544.876872 399.499345 550.613125 370.661256 550.613125 341.54 
" clip-path="url(#pa14bfbb996)" style="fill: none; stroke: #b0b0b0; stroke-width: 0.8; stroke-linecap: square"/>
     </g>
     <g id="text_13">
      <!-- Built-in -->
      <g transform="translate(533.73265 255.012372) scale(0.08 -0.08)">
       <defs>
        <path id="DejaVuSans-42" d="M 1259 2228 
L 1259 519 
L 2272 519 
Q 2781 519 3026 730 
Q 3272 941 3272 1375 
Q 3272 1813 3026 2020 
Q 2781 2228 2272 2228 
L 1259 2228 
z
M 1259 4147 
L 1259 2741 
L 2194 2741 
Q 2656 2741 2882 2914 
Q 3109 3088 3109 3444 
Q 3109 3797 2882 3972 
Q 2656 4147 2194 4147 
L 1259 4147 
z
M 628 4666 
L 2241 4666 
Q 2963 4666 3353 4366 
Q 3744 4066 3744 3513 
Q 3744 3084 3544 2831 
Q 3344 2578 2956 2516 
Q 3422 2416 3680 2098 
Q 3938 1781 3938 1306 
Q 3938 681 3513 340 
Q 3088 0 2303 0 
L 628 0 
L 628 4666 
z
" transform="scale(0.015625)"/>
       </defs>
       <use xlink:href="#DejaVuSans-42"/>
       <use xlink:href="#DejaVuSans-75" transform="translate(68.603516 0)"/>
       <use xlink:href="#DejaVuSans-69" transform="translate(131.982422 0)"/>
       <use xlink:href="#DejaVuSans-6c" transform="translate(159.765625 0)"/>
       <use xlink:href="#DejaVuSans-74" transform="translate(187.548828 0)"/>
       <use xlink:href="#DejaVuSans-2d" transform="translate(226.757812 0)"/>
       <use xlink:href="#DejaVuSans-69" transform="translate(262.841797 0)"/>
       <use xlink:href="#DejaVuSans-6e" transform="translate(290.625 0)"/>
      </g>
     </g>
    </g>
   </g>
   <g id="line2d_14">
    <path d="M 328.853125 341.54 
L 328.853125 341.54 
L 328.853125 341.54 
L 328.853125 341.54 
L 328.853125 341.54 
L 328.853125 341.54 
L 328.853125 341.54 
L 328.853125 341.54 
L 328.853125 341.54 
L 328.853125 341.54 
L 328.853125 341.54 
" clip-path="url(#pa14bfbb996)" style="fill: none; stroke: #2962ff; stroke-width: 2; stroke-linecap: square"/>
    <defs>
     <path id="mfeb4128e66" d="M 0 3 
C 0.795609 3 1.55874 2.683901 2.12132 2.12132 
C 2.683901 1.55874 3 0.795609 3 0 
C 3 -0.795609 2.683901 -1.55874 2.12132 -2.12132 
C 1.55874 -2.683901 0.795609 -3 0 -3 
C -0.795609 -3 -1.55874 -2.683901 -2.12132 -2.12132 
C -2.683901 -1.55874 -3 -0.795609 -3 0 
C -3 0.795609 -2.683901 1.55874 -2.12132 2.12132 
C -1.55874 2.683901 -0.795609 3 0 3 
z
" style="stroke: #2962ff"/>
    </defs>
    <g clip-path="url(#pa14bfbb996)">
     <use xlink:href="#mfeb4128e66" x="328.853125" y="341.54" style="fill: #2962ff; stroke: #2962ff"/>
     <use xlink:href="#mfeb4128e66" x="328.853125" y="341.54" style="fill: #2962ff; stroke: #2962ff"/>
     <use xlink:href="#mfeb4128e66" x="328.853125" y="341.54" style="fill: #2962ff; stroke: #2962ff"/>
     <use xlink:href="#mfeb4128e66" x="328.853125" y="341.54" style="fill: #2962ff; stroke: #2962ff"/>
     <use xlink:href="#mfeb4128e66" x="328.853125" y="341.54" style="fill: #2962ff; stroke: #2962ff"/>
     <use xlink:href="#mfeb4128e66" x="328.853125" y="341.54" style="fill: #2962ff; stroke: #2962ff"/>
     <use xlink:href="#mfeb4128e66" x="328.853125" y="341.54" style="fill: #2962ff; stroke: #2962ff"/>
     <use xlink:href="#mfeb4128e66" x="328.853125" y="341.54" style="fill: #2962ff; stroke: #2962ff"/>
     <use xlink:href="#mfeb4128e66" x="328.853125" y="341.54" style="fill: #2962ff; stroke: #2962ff"/>
     <use xlink:href="#mfeb4128e66" x="328.853125" y="341.54" style="fill: #2962ff; stroke: #2962ff"/>
     <use xlink:href="#mfeb4128e66" x="328.853125" y="341.54" style="fill: #2962ff; stroke: #2962ff"/>
    </g>
   </g>
   <g id="line2d_15">
    <path d="M 328.853125 341.54 
L 328.853125 341.54 
L 328.853125 341.54 
L 328.853125 341.54 
L 328.853125 341.54 
L 328.853125 341.54 
L 328.853125 341.54 
L 328.853125 341.54 
L 328.853125 341.54 
L 328.853125 341.54 
L 328.853125 341.54 
" clip-path="url(#pa14bfbb996)" style="fill: none; stroke: #3776ab; stroke-width: 2; stroke-linecap: square"/>
    <defs>
     <path id="m9d2f238404" d="M 0 3 
C 0.795609 3 1.55874 2.683901 2.12132 2.12132 
C 2.683901 1.55874 3 0.795609 3 0 
C 3 -0.795609 2.683901 -1.55874 2.12132 -2.12132 
C 1.55874 -2.683901 0.795609 -3 0 -3 
C -0.795609 -3 -1.55874 -2.683901 -2.12132 -2.12132 
C -2.683901 -1.55874 -3 -0.795609 -3 0 
C -3 0.795609 -2.683901 1.55874 -2.12132 2.12132 
C -1.55874 2.683901 -0.795609 3 0 3 
z
" style="stroke: #3776ab"/>
    </defs>
    <g clip-path="url(#pa14bfbb996)">
     <use xlink:href="#m9d2f238404" x="328.853125" y="341.54" style="fill: #3776ab; stroke: #3776ab"/>
     <use xlink:href="#m9d2f238404" x="328.853125" y="341.54" style="fill: #3776ab; stroke: #3776ab"/>
     <use xlink:href="#m9d2f238404" x="328.853125" y="341.54" style="fill: #3776ab; stroke: #3776ab"/>
     <use xlink:href="#m9d2f238404" x="328.853125" y="341.54" style="fill: #3776ab; stroke: #3776ab"/>
     <use xlink:href="#m9d2f238404" x="328.853125" y="341.54" style="fill: #3776ab; stroke: #3776ab"/>
     <use xlink:href="#m9d2f238404" x="328.853125" y="341.54" style="fill: #3776ab; stroke: #3776ab"/>
     <use xlink:href="#m9d2f238404" x="328.853125" y="341.54" style="fill: #3776ab; stroke: #3776ab"/>
     <use xlink:href="#m9d2f238404" x="328.853125" y="341.54" style="fill: #3776ab; stroke: #3776ab"/>
     <use xlink:href="#m9d2f238404" x="328.853125" y="341.54" style="fill: #3776ab; stroke: #3776ab"/>
     <use xlink:href="#m9d2f238404" x="328.853125" y="341.54" style="fill: #3776ab; stroke: #3776ab"/>
     <use xlink:href="#m9d2f238404" x="328.853125" y="341.54" style="fill: #3776ab; stroke: #3776ab"/>
    </g>
   </g>
   <g id="line2d_16">
    <path d="M 328.853125 341.54 
L 328.853125 341.54 
L 328.853125 341.54 
L 328.853125 341.54 
L 328.853125 341.54 
L 328.853125 341.54 
L 328.853125 341.54 
L 328.853125 341.54 
L 328.853125 341.54 
L 328.853125 341.54 
L 328.853125 341.54 
" clip-path="url(#pa14bfbb996)" style="fill: none; stroke: #f7df1e; stroke-width: 2; stroke-linecap: square"/>
    <defs>
     <path id="m1378fd5554" d="M 0 3 
C 0.795609 3 1.55874 2.683901 2.12132 2.12132 
C 2.683901 1.55874 3 0.795609 3 0 
C 3 -0.795609 2.683901 -1.55874 2.12132 -2.12132 
C 1.55874 -2.683901 0.795609 -3 0 -3 
C -0.795609 -3 -1.55874 -2.683901 -2.12132 -2.12132 
C -2.683901 -1.55874 -3 -0.795609 -3 0 
C -3 0.795609 -2.683901 1.55874 -2.12132 2.12132 
C -1.55874 2.683901 -0.795609 3 0 3 
z
" style="stroke: #f7df1e"/>
    </defs>
    <g clip-path="url(#pa14bfbb996)">
     <use xlink:href="#m1378fd5554" x="328.853125" y="341.54" style="fill: #f7df1e; stroke: #f7df1e"/>
     <use xlink:href="#m1378fd5554" x="328.853125" y="341.54" style="fill: #f7df1e; stroke: #f7df1e"/>
     <use xlink:href="#m1378fd5554" x="328.853125" y="341.54" style="fill: #f7df1e; stroke: #f7df1e"/>
     <use xlink:href="#m1378fd5554" x="328.853125" y="341.54" style="fill: #f7df1e; stroke: #f7df1e"/>
     <use xlink:href="#m1378fd5554" x="328.853125" y="341.54" style="fill: #f7df1e; stroke: #f7df1e"/>
     <use xlink:href="#m1378fd5554" x="328.853125" y="341.54" style="fill: #f7df1e; stroke: #f7df1e"/>
     <use xlink:href="#m1378fd5554" x="328.853125" y="341.54" style="fill: #f7df1e; stroke: #f7df1e"/>
     <use xlink:href="#m1378fd5554" x="328.853125" y="341.54" style="fill: #f7df1e; stroke: #f7df1e"/>
     <use xlink:href="#m1378fd5554" x="328.853125" y="341.54" style="fill: #f7df1e; stroke: #f7df1e"/>
     <use xlink:href="#m1378fd5554" x="328.853125" y="341.54" style="fill: #f7df1e; stroke: #f7df1e"/>
     <use xlink:href="#m1378fd5554" x="328.853125" y="341.54" style="fill: #f7df1e; stroke: #f7df1e"/>
    </g>
   </g>
   <g id="patch_6">
    <path d="M 606.053125 341.54 
C 606.053125 305.13843 598.882809 269.090818 584.952531 235.460153 
C 571.022253 201.829487 550.602922 171.269798 524.863125 145.53 
C 499.123327 119.790203 468.563638 99.370872 434.932972 85.440594 
C 401.302307 71.510316 365.254695 64.34 328.853125 64.34 
C 292.451555 64.34 256.403943 71.510316 222.773278 85.440594 
C 189.142612 99.370872 158.582923 119.790203 132.843125 145.53 
C 107.103328 171.269798 86.683997 201.829487 72.753719 235.460153 
C 58.823441 269.090818 51.653125 305.13843 51.653125 341.54 
C 51.653125 377.94157 58.823441 413.989182 72.753719 447.619847 
C 86.683997 481.250513 107.103328 511.810202 132.843125 537.55 
C 158.582923 563.289797 189.142612 583.709128 222.773278 597.639406 
C 256.403943 611.569684 292.451555 618.74 328.853125 618.74 
C 365.254695 618.74 401.302307 611.569684 434.932972 597.639406 
C 468.563638 583.709128 499.123327 563.289797 524.863125 537.55 
C 550.602922 511.810202 571.022253 481.250513 584.952531 447.619847 
C 598.882809 413.989182 606.053125 377.94157 606.053125 341.54 
" style="fill: none; stroke: #000000; stroke-width: 0.8; stroke-linejoin: miter; stroke-linecap: square"/>
   </g>
   <g id="text_14">
    <!-- Security Feature Coverage -->
    <g transform="translate(223.602656 44.34) scale(0.14 -0.14)">
     <defs>
      <path id="DejaVuSans-Bold-53" d="M 3834 4519 
L 3834 3531 
Q 3450 3703 3084 3790 
Q 2719 3878 2394 3878 
Q 1963 3878 1756 3759 
Q 1550 3641 1550 3391 
Q 1550 3203 1689 3098 
Q 1828 2994 2194 2919 
L 2706 2816 
Q 3484 2659 3812 2340 
Q 4141 2022 4141 1434 
Q 4141 663 3683 286 
Q 3225 -91 2284 -91 
Q 1841 -91 1394 -6 
Q 947 78 500 244 
L 500 1259 
Q 947 1022 1364 901 
Q 1781 781 2169 781 
Q 2563 781 2772 912 
Q 2981 1044 2981 1288 
Q 2981 1506 2839 1625 
Q 2697 1744 2272 1838 
L 1806 1941 
Q 1106 2091 782 2419 
Q 459 2747 459 3303 
Q 459 4000 909 4375 
Q 1359 4750 2203 4750 
Q 2588 4750 2994 4692 
Q 3400 4634 3834 4519 
z
" transform="scale(0.015625)"/>
      <path id="DejaVuSans-Bold-65" d="M 4031 1759 
L 4031 1441 
L 1416 1441 
Q 1456 1047 1700 850 
Q 1944 653 2381 653 
Q 2734 653 3104 758 
Q 3475 863 3866 1075 
L 3866 213 
Q 3469 63 3072 -14 
Q 2675 -91 2278 -91 
Q 1328 -91 801 392 
Q 275 875 275 1747 
Q 275 2603 792 3093 
Q 1309 3584 2216 3584 
Q 3041 3584 3536 3087 
Q 4031 2591 4031 1759 
z
M 2881 2131 
Q 2881 2450 2695 2645 
Q 2509 2841 2209 2841 
Q 1884 2841 1681 2658 
Q 1478 2475 1428 2131 
L 2881 2131 
z
" transform="scale(0.015625)"/>
      <path id="DejaVuSans-Bold-63" d="M 3366 3391 
L 3366 2478 
Q 3138 2634 2908 2709 
Q 2678 2784 2431 2784 
Q 1963 2784 1702 2511 
Q 1441 2238 1441 1747 
Q 1441 1256 1702 982 
Q 1963 709 2431 709 
Q 2694 709 2930 787 
Q 3166 866 3366 1019 
L 3366 103 
Q 3103 6 2833 -42 
Q 2563 -91 2291 -91 
Q 1344 -91 809 395 
Q 275 881 275 1747 
Q 275 2613 809 3098 
Q 1344 3584 2291 3584 
Q 2566 3584 2833 3536 
Q 3100 3488 3366 3391 
z
" transform="scale(0.015625)"/>
      <path id="DejaVuSans-Bold-75" d="M 500 1363 
L 500 3500 
L 1625 3500 
L 1625 3150 
Q 1625 2866 1622 2436 
Q 1619 2006 1619 1863 
Q 1619 1441 1641 1255 
Q 1663 1069 1716 984 
Q 1784 875 1895 815 
Q 2006 756 2150 756 
Q 2500 756 2700 1025 
Q 2900 1294 2900 1772 
L 2900 3500 
L 4019 3500 
L 4019 0 
L 2900 0 
L 2900 506 
Q 2647 200 2364 54 
Q 2081 -91 1741 -91 
Q 1134 -91 817 281 
Q 500 653 500 1363 
z
" transform="scale(0.015625)"/>
      <path id="DejaVuSans-Bold-72" d="M 3138 2547 
Q 2991 2616 2845 2648 
Q 2700 2681 2553 2681 
Q 2122 2681 1889 2404 
Q 1656 2128 1656 1613 
L 1656 0 
L 538 0 
L 538 3500 
L 1656 3500 
L 1656 2925 
Q 1872 3269 2151 3426 
Q 2431 3584 2822 3584 
Q 2878 3584 2943 3579 
Q 3009 3575 3134 3559 
L 3138 2547 
z
" transform="scale(0.015625)"/>
      <path id="DejaVuSans-Bold-69" d="M 538 3500 
L 1656 3500 
L 1656 0 
L 538 0 
L 538 3500 
z
M 538 4863 
L 1656 4863 
L 1656 3950 
L 538 3950 
L 538 4863 
z
" transform="scale(0.015625)"/>
      <path id="DejaVuSans-Bold-74" d="M 1759 4494 
L 1759 3500 
L 2913 3500 
L 2913 2700 
L 1759 2700 
L 1759 1216 
Q 1759 972 1856 886 
Q 1953 800 2241 800 
L 2816 800 
L 2816 0 
L 1856 0 
Q 1194 0 917 276 
Q 641 553 641 1216 
L 641 2700 
L 84 2700 
L 84 3500 
L 641 3500 
L 641 4494 
L 1759 4494 
z
" transform="scale(0.015625)"/>
      <path id="DejaVuSans-Bold-79" d="M 78 3500 
L 1197 3500 
L 2138 1125 
L 2938 3500 
L 4056 3500 
L 2584 -331 
Q 2363 -916 2067 -1148 
Q 1772 -1381 1288 -1381 
L 641 -1381 
L 641 -647 
L 991 -647 
Q 1275 -647 1404 -556 
Q 1534 -466 1606 -231 
L 1638 -134 
L 78 3500 
z
" transform="scale(0.015625)"/>
      <path id="DejaVuSans-Bold-20" transform="scale(0.015625)"/>
      <path id="DejaVuSans-Bold-46" d="M 588 4666 
L 3834 4666 
L 3834 3756 
L 1791 3756 
L 1791 2888 
L 3713 2888 
L 3713 1978 
L 1791 1978 
L 1791 0 
L 588 0 
L 588 4666 
z
" transform="scale(0.015625)"/>
      <path id="DejaVuSans-Bold-61" d="M 2106 1575 
Q 1756 1575 1579 1456 
Q 1403 1338 1403 1106 
Q 1403 894 1545 773 
Q 1688 653 1941 653 
Q 2256 653 2472 879 
Q 2688 1106 2688 1447 
L 2688 1575 
L 2106 1575 
z
M 3816 1997 
L 3816 0 
L 2688 0 
L 2688 519 
Q 2463 200 2181 54 
Q 1900 -91 1497 -91 
Q 953 -91 614 226 
Q 275 544 275 1050 
Q 275 1666 698 1953 
Q 1122 2241 2028 2241 
L 2688 2241 
L 2688 2328 
Q 2688 2594 2478 2717 
Q 2269 2841 1825 2841 
Q 1466 2841 1156 2769 
Q 847 2697 581 2553 
L 581 3406 
Q 941 3494 1303 3539 
Q 1666 3584 2028 3584 
Q 2975 3584 3395 3211 
Q 3816 2838 3816 1997 
z
" transform="scale(0.015625)"/>
      <path id="DejaVuSans-Bold-43" d="M 4288 256 
Q 3956 84 3597 -3 
Q 3238 -91 2847 -91 
Q 1681 -91 1000 561 
Q 319 1213 319 2328 
Q 319 3447 1000 4098 
Q 1681 4750 2847 4750 
Q 3238 4750 3597 4662 
Q 3956 4575 4288 4403 
L 4288 3438 
Q 3953 3666 3628 3772 
Q 3303 3878 2944 3878 
Q 2300 3878 1931 3465 
Q 1563 3053 1563 2328 
Q 1563 1606 1931 1193 
Q 2300 781 2944 781 
Q 3303 781 3628 887 
Q 3953 994 4288 1222 
L 4288 256 
z
" transform="scale(0.015625)"/>
      <path id="DejaVuSans-Bold-6f" d="M 2203 2784 
Q 1831 2784 1636 2517 
Q 1441 2250 1441 1747 
Q 1441 1244 1636 976 
Q 1831 709 2203 709 
Q 2569 709 2762 976 
Q 2956 1244 2956 1747 
Q 2956 2250 2762 2517 
Q 2569 2784 2203 2784 
z
M 2203 3584 
Q 3106 3584 3614 3096 
Q 4122 2609 4122 1747 
Q 4122 884 3614 396 
Q 3106 -91 2203 -91 
Q 1297 -91 786 396 
Q 275 884 275 1747 
Q 275 2609 786 3096 
Q 1297 3584 2203 3584 
z
" transform="scale(0.015625)"/>
      <path id="DejaVuSans-Bold-76" d="M 97 3500 
L 1216 3500 
L 2088 1081 
L 2956 3500 
L 4078 3500 
L 2700 0 
L 1472 0 
L 97 3500 
z
" transform="scale(0.015625)"/>
      <path id="DejaVuSans-Bold-67" d="M 2919 594 
Q 2688 288 2409 144 
Q 2131 0 1766 0 
Q 1125 0 706 504 
Q 288 1009 288 1791 
Q 288 2575 706 3076 
Q 1125 3578 1766 3578 
Q 2131 3578 2409 3434 
Q 2688 3291 2919 2981 
L 2919 3500 
L 4044 3500 
L 4044 353 
Q 4044 -491 3511 -936 
Q 2978 -1381 1966 -1381 
Q 1638 -1381 1331 -1331 
Q 1025 -1281 716 -1178 
L 716 -306 
Q 1009 -475 1290 -558 
Q 1572 -641 1856 -641 
Q 2406 -641 2662 -400 
Q 2919 -159 2919 353 
L 2919 594 
z
M 2181 2772 
Q 1834 2772 1640 2515 
Q 1447 2259 1447 1791 
Q 1447 1309 1634 1061 
Q 1822 813 2181 813 
Q 2531 813 2725 1069 
Q 2919 1325 2919 1791 
Q 2919 2259 2725 2515 
Q 2531 2772 2181 2772 
z
" transform="scale(0.015625)"/>
     </defs>
     <use xlink:href="#DejaVuSans-Bold-53"/>
     <use xlink:href="#DejaVuSans-Bold-65" transform="translate(72.021484 0)"/>
     <use xlink:href="#DejaVuSans-Bold-63" transform="translate(139.84375 0)"/>
     <use xlink:href="#DejaVuSans-Bold-75" transform="translate(199.121094 0)"/>
     <use xlink:href="#DejaVuSans-Bold-72" transform="translate(270.3125 0)"/>
     <use xlink:href="#DejaVuSans-Bold-69" transform="translate(319.628906 0)"/>
     <use xlink:href="#DejaVuSans-Bold-74" transform="translate(353.90625 0)"/>
     <use xlink:href="#DejaVuSans-Bold-79" transform="translate(401.708984 0)"/>
     <use xlink:href="#DejaVuSans-Bold-20" transform="translate(466.894531 0)"/>
     <use xlink:href="#DejaVuSans-Bold-46" transform="translate(501.708984 0)"/>
     <use xlink:href="#DejaVuSans-Bold-65" transform="translate(566.019531 0)"/>
     <use xlink:href="#DejaVuSans-Bold-61" transform="translate(633.841797 0)"/>
     <use xlink:href="#DejaVuSans-Bold-74" transform="translate(701.322266 0)"/>
     <use xlink:href="#DejaVuSans-Bold-75" transform="translate(749.125 0)"/>
     <use xlink:href="#DejaVuSans-Bold-72" transform="translate(820.316406 0)"/>
     <use xlink:href="#DejaVuSans-Bold-65" transform="translate(869.632812 0)"/>
     <use xlink:href="#DejaVuSans-Bold-20" transform="translate(937.455078 0)"/>
     <use xlink:href="#DejaVuSans-Bold-43" transform="translate(972.269531 0)"/>
     <use xlink:href="#DejaVuSans-Bold-6f" transform="translate(1045.658203 0)"/>
     <use xlink:href="#DejaVuSans-Bold-76" transform="translate(1114.359375 0)"/>
     <use xlink:href="#DejaVuSans-Bold-65" transform="translate(1179.544922 0)"/>
     <use xlink:href="#DejaVuSans-Bold-72" transform="translate(1247.367188 0)"/>
     <use xlink:href="#DejaVuSans-Bold-61" transform="translate(1296.683594 0)"/>
     <use xlink:href="#DejaVuSans-Bold-67" transform="translate(1364.164062 0)"/>
     <use xlink:href="#DejaVuSans-Bold-65" transform="translate(1435.746094 0)"/>
    </g>
   </g>
   <g id="legend_1">
    <g id="patch_7">
     <path d="M 666.345156 66.137812 
L 764.673125 66.137812 
Q 766.873125 66.137812 766.873125 63.937812 
L 766.873125 16.6 
Q 766.873125 14.4 764.673125 14.4 
L 666.345156 14.4 
Q 664.145156 14.4 664.145156 16.6 
L 664.145156 63.937812 
Q 664.145156 66.137812 666.345156 66.137812 
z
" style="fill: #ffffff; opacity: 0.8; stroke: #cccccc; stroke-linejoin: miter"/>
    </g>
    <g id="line2d_17">
     <path d="M 668.545156 23.308281 
L 679.545156 23.308281 
L 690.545156 23.308281 
" style="fill: none; stroke: #2962ff; stroke-width: 2; stroke-linecap: square"/>
     <g>
      <use xlink:href="#mfeb4128e66" x="679.545156" y="23.308281" style="fill: #2962ff; stroke: #2962ff"/>
     </g>
    </g>
    <g id="text_15">
     <!-- MOL -->
     <g transform="translate(699.345156 27.158281) scale(0.11 -0.11)">
      <defs>
       <path id="DejaVuSans-4f" d="M 2522 4238 
Q 1834 4238 1429 3725 
Q 1025 3213 1025 2328 
Q 1025 1447 1429 934 
Q 1834 422 2522 422 
Q 3209 422 3611 934 
Q 4013 1447 4013 2328 
Q 4013 3213 3611 3725 
Q 3209 4238 2522 4238 
z
M 2522 4750 
Q 3503 4750 4090 4092 
Q 4678 3434 4678 2328 
Q 4678 1225 4090 567 
Q 3503 -91 2522 -91 
Q 1538 -91 948 565 
Q 359 1222 359 2328 
Q 359 3434 948 4092 
Q 1538 4750 2522 4750 
z
" transform="scale(0.015625)"/>
      </defs>
      <use xlink:href="#DejaVuSans-4d"/>
      <use xlink:href="#DejaVuSans-4f" transform="translate(86.279297 0)"/>
      <use xlink:href="#DejaVuSans-4c" transform="translate(164.990234 0)"/>
     </g>
    </g>
    <g id="line2d_18">
     <path d="M 668.545156 39.454219 
L 679.545156 39.454219 
L 690.545156 39.454219 
" style="fill: none; stroke: #3776ab; stroke-width: 2; stroke-linecap: square"/>
     <g>
      <use xlink:href="#m9d2f238404" x="679.545156" y="39.454219" style="fill: #3776ab; stroke: #3776ab"/>
     </g>
    </g>
    <g id="text_16">
     <!-- PYTHON -->
     <g transform="translate(699.345156 43.304219) scale(0.11 -0.11)">
      <defs>
       <path id="DejaVuSans-59" d="M -13 4666 
L 666 4666 
L 1959 2747 
L 3244 4666 
L 3922 4666 
L 2272 2222 
L 2272 0 
L 1638 0 
L 1638 2222 
L -13 4666 
z
" transform="scale(0.015625)"/>
      </defs>
      <use xlink:href="#DejaVuSans-50"/>
      <use xlink:href="#DejaVuSans-59" transform="translate(58.052734 0)"/>
      <use xlink:href="#DejaVuSans-54" transform="translate(119.136719 0)"/>
      <use xlink:href="#DejaVuSans-48" transform="translate(180.220703 0)"/>
      <use xlink:href="#DejaVuSans-4f" transform="translate(255.416016 0)"/>
      <use xlink:href="#DejaVuSans-4e" transform="translate(334.126953 0)"/>
     </g>
    </g>
    <g id="line2d_19">
     <path d="M 668.545156 55.600156 
L 679.545156 55.600156 
L 690.545156 55.600156 
" style="fill: none; stroke: #f7df1e; stroke-width: 2; stroke-linecap: square"/>
     <g>
      <use xlink:href="#m1378fd5554" x="679.545156" y="55.600156" style="fill: #f7df1e; stroke: #f7df1e"/>
     </g>
    </g>
    <g id="text_17">
     <!-- JAVASCRIPT -->
     <g transform="translate(699.345156 59.450156) scale(0.11 -0.11)">
      <defs>
       <path id="DejaVuSans-4a" d="M 628 4666 
L 1259 4666 
L 1259 325 
Q 1259 -519 939 -900 
Q 619 -1281 -91 -1281 
L -331 -1281 
L -331 -750 
L -134 -750 
Q 284 -750 456 -515 
Q 628 -281 628 325 
L 628 4666 
z
" transform="scale(0.015625)"/>
       <path id="DejaVuSans-56" d="M 1831 0 
L 50 4666 
L 709 4666 
L 2188 738 
L 3669 4666 
L 4325 4666 
L 2547 0 
L 1831 0 
z
" transform="scale(0.015625)"/>
      </defs>
      <use xlink:href="#DejaVuSans-4a"/>
      <use xlink:href="#DejaVuSans-41" transform="translate(27.742188 0)"/>
      <use xlink:href="#DejaVuSans-56" transform="translate(89.775391 0)"/>
      <use xlink:href="#DejaVuSans-41" transform="translate(151.808594 0)"/>
      <use xlink:href="#DejaVuSans-53" transform="translate(220.216797 0)"/>
      <use xlink:href="#DejaVuSans-43" transform="translate(283.693359 0)"/>
      <use xlink:href="#DejaVuSans-52" transform="translate(353.517578 0)"/>
      <use xlink:href="#DejaVuSans-49" transform="translate(423 0)"/>
      <use xlink:href="#DejaVuSans-50" transform="translate(452.492188 0)"/>
      <use xlink:href="#DejaVuSans-54" transform="translate(512.794922 0)"/>
     </g>
    </g>
   </g>
  </g>
 </g>
 <defs>
  <clipPath id="pa14bfbb996">
   <path d="M 606.053125 341.54 
C 606.053125 305.13843 598.882809 269.090818 584.952531 235.460153 
C 571.022253 201.829487 550.602922 171.269798 524.863125 145.53 
C 499.123327 119.790203 468.563638 99.370872 434.932972 85.440594 
C 401.302307 71.510316 365.254695 64.34 328.853125 64.34 
C 292.451555 64.34 256.403943 71.510316 222.773278 85.440594 
C 189.142612 99.370872 158.582923 119.790203 132.843125 145.53 
C 107.103328 171.269798 86.683997 201.829487 72.753719 235.460153 
C 58.823441 269.090818 51.653125 305.13843 51.653125 341.54 
C 51.653125 377.94157 58.823441 413.989182 72.753719 447.619847 
C 86.683997 481.250513 107.103328 511.810202 132.843125 537.55 
C 158.582923 563.289797 189.142612 583.709128 222.773278 597.639406 
C 256.403943 611.569684 292.451555 618.74 328.853125 618.74 
C 365.254695 618.74 401.302307 611.569684 434.932972 597.639406 
C 468.563638 583.709128 499.123327 563.289797 524.863125 537.55 
C 550.602922 511.810202 571.022253 481.250513 584.952531 447.619847 
C 598.882809 413.989182 606.053125 377.94157 606.053125 341.54 
M 328.853125 341.54 
C 328.853125 341.54 328.853125 341.54 328.853125 341.54 
C 328.853125 341.54 328.853125 341.54 328.853125 341.54 
C 328.853125 341.54 328.853125 341.54 328.853125 341.54 
C 328.853125 341.54 328.853125 341.54 328.853125 341.54 
C 328.853125 341.54 328.853125 341.54 328.853125 341.54 
C 328.853125 341.54 328.853125 341.54 328.853125 341.54 
C 328.853125 341.54 328.853125 341.54 328.853125 341.54 
C 328.853125 341.54 328.853125 341.54 328.853125 341.54 
C 328.853125 341.54 328.853125 341.54 328.853125 341.54 
C 328.853125 341.54 328.853125 341.54 328.853125 341.54 
C 328.853125 341.54 328.853125 341.54 328.853125 341.54 
C 328.853125 341.54 328.853125 341.54 328.853125 341.54 
C 328.853125 341.54 328.853125 341.54 328.853125 341.54 
C 328.853125 341.54 328.853125 341.54 328.853125 341.54 
C 328.853125 341.54 328.853125 341.54 328.853125 341.54 
C 328.853125 341.54 328.853125 341.54 328.853125 341.54 
z
"/>
  </clipPath>
 </defs>
</svg>
